# xmcd CD database file
#
# Track frame offsets:
#	150
#	48083
#	62580
#	78366
#	94004
#	109942
#	124147
#	138665
#	152560
#	166564
#	180725
#	194338
#	208416
#	220497
#	232594
#	245169
#	259795
#	273458
#	289309
#	309595
#
# Disc length: 4356 seconds
#
# Revision: 3
# Processed by: cddbd v1.5.1PL0 Copyright (c) Steve Scherf et al.
# Submitted via: CDex 1.51
#
DISCID=25110214
DTITLE=Bart Leczynski - Podklady Harmonijkowe
DYEAR=1900
DGENRE=Blues
TTITLE0=Tnacja G, Shuffle
TTITLE1=Tonacja A, Rockish
TTITLE2=Tonacja em Rockish
TTITLE3=Tonacja G, Jazzy
TTITLE4=Tonacja gm, Rocky
TTITLE5=Tonacja C County like
TTITLE6=Tonacja C, Shuffle
TTITLE7=Tonacja Bb, Jazzy
TTITLE8=Tonacja cm Bluesy
TTITLE9=Tonacja E, Rosckish
TTITLE10=Tonacja A Bluesy
TTITLE11=Tonacja E Lousy Blues
TTITLE12=Tonacja G Happy Blues (8-tact)
TTITLE13=Tonacja F, The 20's
TTITLE14=Tonacja A White Shuffle
TTITLE15=Tonacja gm Bluesy
TTITLE16=Tonacja A Jazzy 20's
TTITLE17=Tonacja F Poppy
TTITLE18=Tonacja F Total Jazzy
TTITLE19=Tonacja E Funky
EXTD=
EXTT0=
EXTT1=
EXTT2=
EXTT3=
EXTT4=
EXTT5=
EXTT6=
EXTT7=
EXTT8=
EXTT9=
EXTT10=
EXTT11=
EXTT12=
EXTT13=
EXTT14=
EXTT15=
EXTT16=
EXTT17=
EXTT18=
EXTT19=
PLAYORDER=
